<svg width="100" height="14" viewBox="0 0 100 14" fill="none" xmlns="http://www.w3.org/2000/svg">
<path d="M0 6.97336C0 3.12208 3.12208 0 6.97336 0H93.0266C96.8779 0 100 3.12208 100 6.97336C100 10.8246 96.8779 13.9467 93.0266 13.9467H6.97336C3.12208 13.9467 0 10.8246 0 6.97336Z" fill="#FF0000"/>
<g clip-path="url(#clip0_1307_4219)">
<path d="M12.5321 10.6345C14.7859 10.6345 16.613 8.80741 16.613 6.55358C16.613 4.29975 14.7859 2.47266 12.5321 2.47266C10.2783 2.47266 8.45117 4.29975 8.45117 6.55358C8.45117 8.80741 10.2783 10.6345 12.5321 10.6345Z" fill="#1977F3"/>
<path d="M14.12 7.73356L14.3008 6.55364H13.169V5.78807C13.169 5.46555 13.3269 5.15048 13.8342 5.15048H14.349V4.14618C14.349 4.14618 13.8818 4.06641 13.4353 4.06641C12.5033 4.06641 11.8939 4.63111 11.8939 5.65436V6.55364H10.8574V7.73356H11.8939V10.5852C12.1016 10.6179 12.3145 10.6346 12.5315 10.6346C12.7484 10.6346 12.9613 10.6173 13.169 10.5852V7.73356H14.12Z" fill="white"/>
</g>
<path d="M22.9036 2.53575L20.4604 11.6128H19.6608L22.104 2.53575H22.9036ZM32.5009 3.98856V4.7287H31.4585V10.4727H30.6558C30.4542 10.0626 30.204 9.70471 29.9052 9.39892C29.6064 9.08618 29.2867 8.81862 28.9461 8.59623L29.2067 7.90821C29.4708 8.0611 29.7453 8.26959 30.0303 8.53368C30.3152 8.79777 30.5341 9.06534 30.687 9.33638C30.6801 9.23213 30.6731 9.13483 30.6662 9.04449C30.6662 8.95414 30.6627 8.86032 30.6558 8.76302C30.6558 8.66573 30.6558 8.56148 30.6558 8.45028V4.7287H23.0354V3.98856H32.5009ZM27.0593 9.52402C26.5867 9.52402 26.135 9.41282 25.7041 9.19043C25.2732 8.96804 24.8666 8.59275 24.4844 8.06457C24.1091 7.52945 23.7616 6.79625 23.4419 5.86498L24.2029 5.61479C24.4531 6.33757 24.7137 6.93177 24.9848 7.3974C25.2628 7.85608 25.572 8.19314 25.9126 8.40859C26.2531 8.62403 26.6423 8.73175 27.0801 8.73175C27.4624 8.73175 27.7681 8.67268 27.9975 8.55453C28.2338 8.42944 28.404 8.26264 28.5083 8.05415C28.6125 7.84566 28.6647 7.60937 28.6647 7.34528C28.6647 6.94219 28.5535 6.61556 28.3311 6.36537C28.1156 6.11518 27.8446 5.99008 27.518 5.99008C27.2886 5.99008 27.1149 6.0422 26.9967 6.14645C26.8786 6.24374 26.8195 6.39316 26.8195 6.59471C26.8195 6.64335 26.8265 6.70938 26.8404 6.79277C26.8543 6.87617 26.8751 6.95262 26.9029 7.02211L26.1106 7.17848C26.062 7.03254 26.0238 6.90049 25.996 6.78235C25.9751 6.65725 25.9647 6.53911 25.9647 6.42791C25.9647 6.17077 26.0342 5.95533 26.1732 5.78159C26.3191 5.60784 26.5033 5.47927 26.7257 5.39588C26.955 5.30553 27.1948 5.26036 27.445 5.26036C27.855 5.26036 28.2095 5.35418 28.5083 5.54182C28.8071 5.72252 29.0399 5.97271 29.2067 6.29239C29.3735 6.61208 29.4569 6.98389 29.4569 7.40783C29.4569 7.78311 29.3701 8.13407 29.1963 8.46071C29.0226 8.7804 28.7585 9.03754 28.404 9.23213C28.0496 9.42672 27.6014 9.52402 27.0593 9.52402ZM26.7257 5.62522C26.6909 5.40283 26.5867 5.20824 26.4129 5.04144C26.2462 4.8677 25.9994 4.74608 25.6728 4.67658L25.923 4.20747L26.3921 4.33257C26.7882 4.48546 27.0732 4.65921 27.2469 4.8538C27.4207 5.04839 27.5214 5.29511 27.5492 5.59395L26.7257 5.62522ZM35.3156 3.98856V4.7287H34.221V10.4727H33.4183V5.47927C33.3001 5.20824 33.1646 5.01712 33.0117 4.90592C32.8658 4.78778 32.692 4.7287 32.4905 4.7287H32.3862V3.98856H32.4905C32.6851 3.98856 32.8658 4.04416 33.0326 4.15535C33.2063 4.2596 33.3488 4.42292 33.46 4.64531C33.453 4.61056 33.4426 4.53064 33.4287 4.40554C33.4218 4.28045 33.4183 4.17273 33.4183 4.08238V3.30053H33.9708L34.2105 3.98856H35.3156ZM42.9381 3.98856V4.7287H41.8435V10.4727H41.0408V6.98042L41.1033 7.25146C40.9504 7.02906 40.7871 6.85185 40.6134 6.7198C40.4466 6.58776 40.2624 6.52173 40.0609 6.52173C39.9566 6.52173 39.8489 6.54258 39.7377 6.58428C39.6335 6.61903 39.5431 6.68853 39.4667 6.79277C39.3972 6.89702 39.3624 7.05686 39.3624 7.27231C39.3624 7.34875 39.3624 7.41825 39.3624 7.4808C39.3694 7.53639 39.3763 7.59199 39.3833 7.64759L38.7057 7.69971C38.6779 7.41477 38.6014 7.17501 38.4763 6.98042C38.3512 6.77887 38.1983 6.62598 38.0176 6.52173C37.8369 6.41749 37.6424 6.36537 37.4339 6.36537C37.2462 6.36537 37.0864 6.40359 36.9543 6.48004C36.8223 6.54953 36.7215 6.64683 36.652 6.77192C36.5825 6.89007 36.5478 7.02559 36.5478 7.17848C36.5478 7.45647 36.6485 7.69276 36.8501 7.88736C37.0586 8.08195 37.3505 8.24527 37.7258 8.37731L37.4443 9.14873C37.1107 9.04449 36.8119 8.90202 36.5478 8.72132C36.2837 8.54063 36.0752 8.31824 35.9223 8.05415C35.7694 7.79006 35.693 7.48427 35.693 7.13679C35.693 6.82405 35.7694 6.55648 35.9223 6.33409C36.0752 6.10475 36.2802 5.92753 36.5373 5.80244C36.7945 5.67734 37.076 5.61479 37.3817 5.61479C37.7501 5.61479 38.0663 5.68429 38.3304 5.82329C38.5945 5.95533 38.8377 6.17077 39.0601 6.46961L38.9037 6.48004C38.9732 6.25069 39.1053 6.07695 39.2999 5.95881C39.5014 5.83371 39.7099 5.77116 39.9253 5.77116C40.1755 5.77116 40.391 5.81981 40.5717 5.91711C40.7524 6.0144 40.9504 6.1534 41.1659 6.33409L41.072 6.49046C41.0651 6.34452 41.0581 6.19857 41.0512 6.05263C41.0442 5.90668 41.0408 5.75726 41.0408 5.60437V4.7287H35.1092V3.98856H42.9381ZM45.3612 5.26036C45.9102 5.26036 46.3515 5.35418 46.6851 5.54182C47.0257 5.72252 47.2759 5.95533 47.4357 6.24027C47.5955 6.51826 47.6755 6.79972 47.6755 7.08466C47.6755 7.65454 47.4739 8.10627 47.0708 8.43986C46.6747 8.77345 46.084 8.96109 45.2987 9.00279L45.4029 8.88812C45.7156 8.97846 46.0457 9.10703 46.3932 9.27383C46.7407 9.44062 47.0917 9.63521 47.4461 9.85761C47.8006 10.073 48.1411 10.3128 48.4677 10.5769L47.9882 11.1294C47.5573 10.8097 47.1612 10.5352 46.7998 10.3059C46.4454 10.0696 46.0944 9.86455 45.7469 9.69081C45.3994 9.51707 45.0311 9.36417 44.6419 9.23213C44.2527 9.10008 43.8114 8.97846 43.318 8.86727L43.4743 8.14797C43.7176 8.21747 43.9504 8.26959 44.1728 8.30434C44.4021 8.33214 44.6767 8.34604 44.9963 8.34604C45.4898 8.34604 45.8685 8.28697 46.1326 8.16882C46.4037 8.05068 46.5913 7.89778 46.6955 7.71014C46.7998 7.5225 46.8519 7.33138 46.8519 7.13679C46.8519 6.76845 46.7164 6.48699 46.4454 6.29239C46.1743 6.09085 45.8303 5.99008 45.4133 5.99008C45.1631 5.99008 44.9616 6.0144 44.8087 6.06305C44.6558 6.1117 44.5446 6.18467 44.4751 6.28197C44.4126 6.37231 44.3813 6.48351 44.3813 6.61556C44.3813 6.67115 44.3882 6.73023 44.4021 6.79277C44.416 6.84837 44.4299 6.90049 44.4438 6.94914L43.6828 7.10551C43.6481 7.00127 43.6203 6.89354 43.5994 6.78235C43.5786 6.6642 43.5682 6.55996 43.5682 6.46961C43.5682 6.21247 43.6446 5.99355 43.7975 5.81286C43.9504 5.63217 44.1589 5.49665 44.423 5.4063C44.694 5.30901 45.0068 5.26036 45.3612 5.26036ZM44.6628 5.62522C44.628 5.40283 44.5238 5.20824 44.35 5.04144C44.1763 4.8677 43.9261 4.74608 43.5994 4.67658L43.8496 4.20747L44.3292 4.33257C44.7183 4.48546 44.9998 4.65921 45.1736 4.8538C45.3543 5.04839 45.4585 5.29511 45.4863 5.59395L44.6628 5.62522ZM48.4677 3.98856V4.7287H42.7342V3.98856H48.4677ZM51.2435 3.98856V4.7287H50.1489V10.4727H49.3462V5.58352C49.2628 5.34723 49.1378 5.14569 48.971 4.97889C48.8111 4.8121 48.6026 4.7287 48.3455 4.7287H48.2621V3.98856H48.4185C48.5852 3.98856 48.759 4.04416 48.9397 4.15535C49.1204 4.2596 49.2663 4.42292 49.3775 4.64531C49.3706 4.61056 49.3636 4.53064 49.3567 4.40554C49.3497 4.28045 49.3462 4.17273 49.3462 4.08238V3.30053H49.9092L50.1385 3.98856H51.2435ZM57.7237 3.98856V4.7287H56.6291V10.4727H55.8264V9.06534L56.0141 9.61784C55.7708 9.2495 55.5241 8.90897 55.2739 8.59623C55.0307 8.28349 54.7701 8.02983 54.4921 7.83523C54.221 7.64064 53.9222 7.54334 53.5956 7.54334C53.3384 7.54334 53.1195 7.60937 52.9388 7.74141C52.7651 7.87346 52.6782 8.07152 52.6782 8.33561C52.6782 8.56496 52.7616 8.75955 52.9284 8.91939C53.0952 9.07229 53.3419 9.20433 53.6685 9.31553L53.4079 10.1182C53.0326 9.98618 52.7269 9.82633 52.4906 9.63869C52.2612 9.45105 52.091 9.24603 51.9798 9.02364C51.8755 8.7943 51.8234 8.55453 51.8234 8.30434C51.8234 7.97075 51.9033 7.69276 52.0632 7.47037C52.2299 7.24798 52.4384 7.08119 52.6886 6.96999C52.9458 6.85185 53.2029 6.79277 53.4601 6.79277C53.877 6.79277 54.2419 6.86922 54.5546 7.02211C54.8743 7.17501 55.1523 7.38003 55.3886 7.63717C55.6318 7.89431 55.8508 8.18272 56.0454 8.50241L55.8681 8.53368C55.8542 8.37384 55.8438 8.21399 55.8369 8.05415C55.8299 7.88736 55.8264 7.71709 55.8264 7.54334V4.7287H51.0311V3.98856H57.7237ZM54.2523 7.10551C54.2523 7.14721 54.2488 7.18891 54.2419 7.23061C54.2419 7.27231 54.2384 7.314 54.2315 7.3557L53.4392 7.11594C53.4253 6.71285 53.3558 6.38969 53.2307 6.14645C53.1056 5.90321 52.9075 5.71904 52.6365 5.59395C52.3655 5.4619 51.9971 5.37155 51.5315 5.32291L51.667 4.57233L52.1466 4.70785C52.4801 4.73565 52.7755 4.80515 53.0326 4.91635C53.2967 5.02059 53.5191 5.17001 53.6998 5.3646C53.8805 5.5592 54.016 5.80244 54.1064 6.09433C54.2037 6.37926 54.2523 6.71633 54.2523 7.10551ZM64.0105 3.98856V4.7287H59.2777V7.83523L59.1318 7.62674C59.4098 7.314 59.726 7.02211 60.0804 6.75108C60.4348 6.48004 60.8205 6.23332 61.2375 6.01093C61.6545 5.78159 62.0993 5.58005 62.5719 5.4063L63.2495 6.07348C63.1174 6.31672 63.0097 6.55301 62.9263 6.78235C62.8499 7.01169 62.7908 7.25146 62.7491 7.50165C62.7143 7.75184 62.697 8.02983 62.697 8.33561C62.697 8.67615 62.7248 9.00279 62.7804 9.31553C62.836 9.62826 62.9298 9.97923 63.0618 10.3684L62.28 10.5456C62.1549 10.1425 62.0576 9.74988 61.9881 9.36765C61.9186 8.97846 61.8839 8.57538 61.8839 8.1584C61.8839 7.87346 61.9047 7.60589 61.9464 7.3557C61.9881 7.10551 62.0437 6.88312 62.1132 6.68853C62.1896 6.48699 62.2661 6.32367 62.3425 6.19857L62.4676 6.25069C62.0715 6.41054 61.6858 6.60513 61.3105 6.83447C60.9352 7.06381 60.5669 7.3279 60.2055 7.62674C59.8441 7.92558 59.4723 8.26612 59.0901 8.64835L58.475 8.23137V4.7287H57.516V3.98856H64.0105ZM61.0523 13.2456C60.8647 13.2456 60.6597 13.2039 60.4373 13.1205C60.2149 13.0441 60.0272 12.919 59.8744 12.7452C59.7145 12.5715 59.6346 12.3387 59.6346 12.0468C59.6346 11.6923 59.7701 11.4074 60.0411 11.192C60.3122 10.9835 60.6909 10.8792 61.1774 10.8792C61.6083 10.8792 62.0253 10.9557 62.4284 11.1086C62.8245 11.2684 63.2311 11.4873 63.6481 11.7653C64.0581 12.0433 64.4959 12.3665 64.9616 12.7348L64.4924 13.2977C64.0268 12.9085 63.6029 12.5854 63.2206 12.3282C62.8384 12.0711 62.477 11.8765 62.1365 11.7445C61.796 11.6124 61.4589 11.5464 61.1253 11.5464C60.8751 11.5464 60.6875 11.595 60.5624 11.6923C60.4373 11.7896 60.3747 11.9147 60.3747 12.0676C60.3747 12.2622 60.4442 12.3977 60.5832 12.4742C60.7153 12.5576 60.8716 12.5993 61.0523 12.5993C61.3095 12.5993 61.518 12.5437 61.6778 12.4325C61.8307 12.3282 61.9488 12.1962 62.0322 12.0363C62.1156 11.8765 62.1712 11.7097 62.199 11.536C62.2268 11.3692 62.2407 11.2198 62.2407 11.0877V10.3893H63.0434V10.9418C63.0434 11.1364 63.0226 11.3622 62.9809 11.6194C62.9322 11.8835 62.8419 12.1371 62.7098 12.3804C62.5708 12.6305 62.3693 12.8356 62.1052 12.9954C61.8411 13.1622 61.4902 13.2456 61.0523 13.2456ZM66.7786 3.98856V4.7287H65.684V10.4727H64.8813V4.7287H63.7972V3.98856H64.7562C64.645 3.85651 64.5304 3.71404 64.4122 3.56115C64.301 3.40825 64.2003 3.25884 64.1099 3.11289C64.3879 2.70286 64.6867 2.33105 65.0064 1.99746C65.3331 1.66387 65.7118 1.39978 66.1427 1.20519C66.5805 1.0106 67.1018 0.913301 67.7064 0.913301C68.1581 0.913301 68.5821 0.958475 68.9782 1.04882C69.3813 1.13222 69.7739 1.25731 70.1562 1.42411C70.5384 1.5909 70.9241 1.78897 71.3133 2.01831C71.7025 2.24765 72.1091 2.50826 72.533 2.80015L72.116 3.38393C71.6712 3.09204 71.2681 2.83838 70.9068 2.62294C70.5523 2.40749 70.2118 2.23028 69.8851 2.09128C69.5585 1.95229 69.2284 1.84804 68.8948 1.77854C68.5682 1.70905 68.2103 1.6743 67.8211 1.6743C67.3415 1.6743 66.9315 1.74379 66.591 1.88279C66.2504 2.02178 65.9551 2.20943 65.7049 2.44572C65.4547 2.68201 65.2253 2.94957 65.0169 3.24841C65.0655 3.35266 65.1385 3.46733 65.2358 3.59242C65.3331 3.71752 65.4443 3.84956 65.5694 3.98856H66.7786ZM74.3951 3.98856V4.7287H73.3005V10.4727H72.4978V6.98042L72.5604 7.25146C72.4075 7.02906 72.2441 6.85185 72.0704 6.7198C71.9036 6.58776 71.7194 6.52173 71.5179 6.52173C71.4137 6.52173 71.3059 6.54258 71.1947 6.58428C71.0905 6.61903 71.0001 6.68853 70.9237 6.79277C70.8542 6.89702 70.8194 7.05686 70.8194 7.27231C70.8194 7.34875 70.8194 7.41825 70.8194 7.4808C70.8264 7.53639 70.8333 7.59199 70.8403 7.64759L70.1627 7.69971C70.1349 7.41477 70.0585 7.17501 69.9334 6.98042C69.8083 6.77887 69.6554 6.62598 69.4747 6.52173C69.294 6.41749 69.0994 6.36537 68.8909 6.36537C68.7033 6.36537 68.5434 6.40359 68.4114 6.48004C68.2793 6.54953 68.1786 6.64683 68.1091 6.77192C68.0396 6.89007 68.0048 7.02559 68.0048 7.17848C68.0048 7.45647 68.1056 7.69276 68.3071 7.88736C68.5156 8.08195 68.8075 8.24527 69.1828 8.37731L68.9013 9.14873C68.5677 9.04449 68.2689 8.90202 68.0048 8.72132C67.7407 8.54063 67.5322 8.31824 67.3793 8.05415C67.2264 7.79006 67.15 7.48427 67.15 7.13679C67.15 6.82405 67.2264 6.55648 67.3793 6.33409C67.5322 6.10475 67.7372 5.92753 67.9944 5.80244C68.2515 5.67734 68.533 5.61479 68.8388 5.61479C69.2071 5.61479 69.5233 5.68429 69.7874 5.82329C70.0515 5.95533 70.2947 6.17077 70.5171 6.46961L70.3608 6.48004C70.4303 6.25069 70.5623 6.07695 70.7569 5.95881C70.9584 5.83371 71.1669 5.77116 71.3824 5.77116C71.6326 5.77116 71.848 5.81981 72.0287 5.91711C72.2094 6.0144 72.4075 6.1534 72.6229 6.33409L72.5291 6.49046C72.5221 6.34452 72.5152 6.19857 72.5082 6.05263C72.5013 5.90668 72.4978 5.75726 72.4978 5.60437V4.7287H66.5662V3.98856H74.3951ZM82.0201 3.98856V4.7287H80.9255V8.26264H80.1228V6.66768L80.1854 6.99084C80.0325 6.76845 79.8692 6.59123 79.6954 6.45919C79.5286 6.32714 79.3445 6.26112 79.1429 6.26112C79.0387 6.26112 78.9309 6.28197 78.8198 6.32367C78.7155 6.35842 78.6252 6.42791 78.5487 6.53216C78.4792 6.6364 78.4445 6.79625 78.4445 7.01169C78.4445 7.08814 78.4445 7.15763 78.4445 7.22018C78.4514 7.27578 78.4584 7.33138 78.4653 7.38698L77.7877 7.42867C77.746 7.01169 77.5966 6.68853 77.3395 6.45919C77.0893 6.2229 76.8043 6.10475 76.4846 6.10475C76.2067 6.10475 75.9947 6.17077 75.8487 6.30282C75.7028 6.42791 75.6298 6.59471 75.6298 6.8032C75.6298 7.07424 75.7202 7.27925 75.9009 7.41825C76.0885 7.55724 76.3352 7.68581 76.641 7.80396L76.3595 8.57538C76.0607 8.47808 75.7897 8.35299 75.5464 8.20009C75.3101 8.04025 75.1225 7.84218 74.9835 7.60589C74.8445 7.3696 74.775 7.08119 74.775 6.74065C74.775 6.47656 74.8445 6.24027 74.9835 6.03178C75.1294 5.82329 75.324 5.65997 75.5673 5.54182C75.8175 5.41673 76.092 5.35418 76.3908 5.35418C76.8078 5.35418 77.1483 5.42368 77.4124 5.56267C77.6765 5.69472 77.9232 5.91363 78.1526 6.21942H77.9858C78.0553 5.99008 78.1873 5.81634 78.3819 5.69819C78.5835 5.5731 78.792 5.51055 79.0074 5.51055C79.2576 5.51055 79.473 5.5592 79.6537 5.65649C79.8344 5.75379 80.0325 5.89278 80.2479 6.07348L80.1541 6.22985C80.1472 6.09085 80.1402 5.94838 80.1333 5.80244C80.1263 5.64954 80.1228 5.49665 80.1228 5.34375V4.7287H74.1912V3.98856H82.0201ZM77.2769 8.40859C77.5619 8.40859 77.8225 8.46766 78.0588 8.5858C78.302 8.697 78.4896 8.86032 78.6217 9.07576C78.6981 8.91592 78.7989 8.80125 78.924 8.73175C79.056 8.6553 79.2089 8.61708 79.3827 8.61708C79.5912 8.61708 79.7858 8.6692 79.9665 8.77345C80.1472 8.87074 80.3348 9.00626 80.5294 9.18001L80.1333 9.02364C80.1263 8.94719 80.1228 8.86727 80.1228 8.78387C80.1228 8.69353 80.1228 8.58233 80.1228 8.45028V7.9916H80.9255V10.9209H80.1228V9.07576L80.4668 9.97228C80.2931 9.77768 80.1298 9.62131 79.9769 9.50317C79.8309 9.38502 79.6746 9.32595 79.5078 9.32595C79.3618 9.32595 79.2402 9.37112 79.1429 9.46147C79.0456 9.54487 78.997 9.68734 78.997 9.88888C78.997 9.93753 78.997 9.99312 78.997 10.0557C79.0039 10.1182 79.0109 10.1738 79.0178 10.2225L78.3819 10.2537C78.3333 9.89235 78.2151 9.61436 78.0275 9.41977C77.8468 9.21823 77.6209 9.11746 77.3499 9.11746C77.1414 9.11746 76.985 9.16958 76.8808 9.27383C76.7765 9.37807 76.7244 9.50317 76.7244 9.64911C76.7244 9.84371 76.7904 10.0035 76.9225 10.1286C77.0615 10.2468 77.2873 10.3649 77.6001 10.4831L77.2978 11.192C76.8808 11.0391 76.5437 10.8375 76.2866 10.5873C76.0364 10.3441 75.9113 10.0209 75.9113 9.61784C75.9113 9.27035 76.0399 8.98194 76.297 8.7526C76.5541 8.52326 76.8808 8.40859 77.2769 8.40859ZM84.7977 3.98856V4.7287H83.7031V10.4727H82.9004V5.58352C82.817 5.34723 82.6919 5.14569 82.5251 4.97889C82.3653 4.8121 82.1568 4.7287 81.8997 4.7287H81.8163V3.98856H81.9726C82.1394 3.98856 82.3132 4.04416 82.4939 4.15535C82.6745 4.2596 82.8205 4.42292 82.9317 4.64531C82.9247 4.61056 82.9178 4.53064 82.9108 4.40554C82.9039 4.28045 82.9004 4.17273 82.9004 4.08238V3.30053H83.4633L83.6927 3.98856H84.7977ZM87.2123 5.26036C87.7613 5.26036 88.2026 5.35418 88.5362 5.54182C88.8767 5.72252 89.1269 5.95533 89.2868 6.24027C89.4466 6.51826 89.5265 6.79972 89.5265 7.08466C89.5265 7.65454 89.325 8.10627 88.9219 8.43986C88.5258 8.77345 87.9351 8.96109 87.1497 9.00279L87.254 8.88812C87.5667 8.97846 87.8968 9.10703 88.2443 9.27383C88.5918 9.44062 88.9428 9.63521 89.2972 9.85761C89.6516 10.073 89.9922 10.3128 90.3188 10.5769L89.8393 11.1294C89.4084 10.8097 89.0123 10.5352 88.6509 10.3059C88.2964 10.0696 87.9455 9.86455 87.598 9.69081C87.2505 9.51707 86.8822 9.36417 86.493 9.23213C86.1038 9.10008 85.6625 8.97846 85.1691 8.86727L85.3254 8.14797C85.5687 8.21747 85.8015 8.26959 86.0239 8.30434C86.2532 8.33214 86.5277 8.34604 86.8474 8.34604C87.3409 8.34604 87.7196 8.28697 87.9837 8.16882C88.2547 8.05068 88.4424 7.89778 88.5466 7.71014C88.6509 7.5225 88.703 7.33138 88.703 7.13679C88.703 6.76845 88.5675 6.48699 88.2964 6.29239C88.0254 6.09085 87.6814 5.99008 87.2644 5.99008C87.0142 5.99008 86.8127 6.0144 86.6598 6.06305C86.5069 6.1117 86.3957 6.18467 86.3262 6.28197C86.2637 6.37231 86.2324 6.48351 86.2324 6.61556C86.2324 6.67115 86.2393 6.73023 86.2532 6.79277C86.2671 6.84837 86.281 6.90049 86.2949 6.94914L85.5339 7.10551C85.4992 7.00127 85.4714 6.89354 85.4505 6.78235C85.4297 6.6642 85.4193 6.55996 85.4193 6.46961C85.4193 6.21247 85.4957 5.99355 85.6486 5.81286C85.8015 5.63217 86.01 5.49665 86.2741 5.4063C86.5451 5.30901 86.8579 5.26036 87.2123 5.26036ZM86.5138 5.62522C86.4791 5.40283 86.3748 5.20824 86.2011 5.04144C86.0274 4.8677 85.7772 4.74608 85.4505 4.67658L85.7007 4.20747L86.1803 4.33257C86.5694 4.48546 86.8509 4.65921 87.0246 4.8538C87.2053 5.04839 87.3096 5.29511 87.3374 5.59395L86.5138 5.62522ZM90.3188 3.98856V4.7287H84.5853V3.98856H90.3188Z" fill="white"/>
<defs>
<clipPath id="clip0_1307_4219">
<rect width="8.16185" height="8.16185" fill="white" transform="translate(8.45117 2.47266)"/>
</clipPath>
</defs>
</svg>
